<svg xmlns="http://www.w3.org/2000/svg" viewBox="0 0 16 16" shape-rendering="crispEdges" fill="currentColor" aria-hidden="true">
  <rect x="3" y="4" width="1" height="1"/>
  <rect x="4" y="4" width="1" height="1"/>
  <rect x="9" y="4" width="1" height="1"/>
  <rect x="10" y="4" width="1" height="1"/>
  <rect x="11" y="4" width="1" height="1"/>
  <rect x="2" y="5" width="1" height="1"/>
  <rect x="5" y="5" width="1" height="1"/>
  <rect x="8" y="5" width="1" height="1"/>
  <rect x="12" y="5" width="1" height="1"/>
  <rect x="2" y="6" width="1" height="1"/>
  <rect x="5" y="6" width="1" height="1"/>
  <rect x="8" y="6" width="1" height="1"/>
  <rect x="12" y="6" width="1" height="1"/>
  <rect x="2" y="7" width="1" height="1"/>
  <rect x="5" y="7" width="1" height="1"/>
  <rect x="8" y="7" width="1" height="1"/>
  <rect x="9" y="7" width="1" height="1"/>
  <rect x="10" y="7" width="1" height="1"/>
  <rect x="11" y="7" width="1" height="1"/>
  <rect x="12" y="7" width="1" height="1"/>
  <rect x="2" y="8" width="1" height="1"/>
  <rect x="3" y="8" width="1" height="1"/>
  <rect x="4" y="8" width="1" height="1"/>
  <rect x="5" y="8" width="1" height="1"/>
  <rect x="8" y="8" width="1" height="1"/>
  <rect x="12" y="8" width="1" height="1"/>
  <rect x="2" y="9" width="1" height="1"/>
  <rect x="5" y="9" width="1" height="1"/>
  <rect x="8" y="9" width="1" height="1"/>
  <rect x="12" y="9" width="1" height="1"/>
  <rect x="2" y="10" width="1" height="1"/>
  <rect x="5" y="10" width="1" height="1"/>
  <rect x="8" y="10" width="1" height="1"/>
  <rect x="12" y="10" width="1" height="1"/>
</svg>
